<svg xmlns="http://www.w3.org/2000/svg" width="39.725" height="48.881" viewBox="0 0 39.725 48.881">
  <g id="headphones_1_" data-name="headphones (1)" transform="translate(0 0)">
    <g id="Group_2" data-name="Group 2" transform="translate(3.054 0)">
      <g id="Group_1" data-name="Group 1" transform="translate(0 0)">
        <path id="Path_1" data-name="Path 1" d="M82.194,0A16.809,16.809,0,0,0,65.38,16.8a6.961,6.961,0,0,1,.934-.065h.934a14.941,14.941,0,1,1,29.882,0v.009h.934a6.961,6.961,0,0,1,.934.065A16.809,16.809,0,0,0,82.194,0Z" transform="translate(-65.38 0)" fill="#445056"/>
      </g>
    </g>
    <g id="Group_4" data-name="Group 4" transform="translate(15.698 36.144)">
      <g id="Group_3" data-name="Group 3" transform="translate(0)">
        <path id="Path_2" data-name="Path 2" d="M193.74,309.705l-.934-.009c-.2,6.611-3.278,8.143-9.506,8.4v-.626a1.868,1.868,0,0,0-1.868-1.868h-5.864a1.868,1.868,0,0,0-1.868,1.868v3.035a1.868,1.868,0,0,0,1.868,1.868h5.892a1.868,1.868,0,0,0,1.868-1.868v-.542c5.967-.252,11.131-1.494,11.346-10.328A6.967,6.967,0,0,1,193.74,309.705Z" transform="translate(-173.7 -309.64)" fill="#445056"/>
      </g>
    </g>
    <g id="Group_6" data-name="Group 6" transform="translate(0 18.149)">
      <g id="Group_5" data-name="Group 5">
        <path id="Path_3" data-name="Path 3" d="M43.161,155.48c-1.475,0-3.941.514-3.941,3.941V168.2c0,3.427,2.465,3.941,3.941,3.941h2.054V155.48Z" transform="translate(-39.22 -155.48)" fill="#445056"/>
      </g>
    </g>
    <g id="Group_8" data-name="Group 8" transform="translate(33.73 18.149)">
      <g id="Group_7" data-name="Group 7">
        <path id="Path_4" data-name="Path 4" d="M330.234,155.48H328.18v16.65h2.054c1.475,0,3.941-.514,3.941-3.941v-8.778C334.175,155.994,331.71,155.48,330.234,155.48Z" transform="translate(-328.18 -155.48)" fill="#445056"/>
      </g>
    </g>
  </g>
</svg>
